<svg aria-hidden="true" style="position:absolute;width:0;height:0;overflow:hidden" xmlns="http://www.w3.org/2000/svg">
    <defs>
        <symbol id="icon-vector1" viewBox="0 0 19 32">
            <path fill="none" stroke="#fff" style="stroke: var(--color1, #fff)" stroke-linejoin="round" stroke-linecap="round" stroke-miterlimit="4" stroke-width="6.4" d="M3.2 3.2l11.552 12.8-11.552 12.8"></path>
        </symbol>
        <symbol id="icon-Vector" viewBox="0 0 19 32">
            <path fill="none" stroke="#d41443" style="stroke:var(--color1, #d41443)" stroke-linejoin="round" stroke-linecap="round" stroke-width="6.4" d="M3.2 3.2 16 16 3.2 28.8"/>
        </symbol>
        <symbol id="icon-close" viewBox="0 0 32 32">
            <path  fill="none" stroke="#fff" style="stroke:var(--color2, #fff)" stroke-width="2"  d="m2.519 2 26.963 28M2 29.481 30 2.518"/>
        </symbol>
        <symbol id="icon-person-black" viewBox="0 0 32 32">
            <path d="M16 16c2.946 0 5.333-2.388 5.333-5.333s-2.388-5.333-5.333-5.333v0c-2.946 0-5.333 2.388-5.333 5.333s2.388 5.333 5.333 5.333v0zM16 18.667c-3.561 0-10.667 1.787-10.667 5.333v1.333c0 0.732 0.599 1.333 1.333 1.333h18.667c0.732 0 1.333-0.601 1.333-1.333v-1.333c0-3.547-7.108-5.333-10.667-5.333z"></path>
        </symbol>
        <symbol id="icon-telephone" viewBox="0 0 32 32">
            <path d="M24.882 19.774l-3.268-0.373c-0.090-0.011-0.194-0.018-0.3-0.018-0.707 0-1.347 0.287-1.81 0.75l-2.368 2.368c-3.669-1.894-6.585-4.81-8.427-8.372l-0.051-0.108 2.382-2.377c0.463-0.463 0.75-1.103 0.75-1.81 0-0.106-0.006-0.21-0.019-0.312l0.001 0.012-0.373-3.243c-0.155-1.287-1.24-2.276-2.557-2.276-0.001 0-0.002 0-0.003 0h-2.226c-1.454 0-2.663 1.209-2.574 2.661 0.683 10.987 9.47 19.762 20.444 20.444 1.452 0.089 2.663-1.12 2.663-2.574v-2.226c0-0.004 0-0.008 0-0.012 0-1.308-0.985-2.386-2.253-2.532l-0.012-0.001z"></path>
        </symbol>
        <symbol id="icon-letter" viewBox="0 0 32 32">
            <path d="M26.667 5.333h-21.333c-1.467 0-2.652 1.2-2.652 2.667l-0.014 16c0 1.467 1.2 2.667 2.667 2.667h21.333c1.467 0 2.667-1.2 2.667-2.667v-16c0-1.467-1.2-2.667-2.667-2.667zM26.133 11.001l-9.426 5.892c-0.201 0.126-0.446 0.2-0.708 0.2s-0.506-0.075-0.713-0.204l0.006 0.003-9.426-5.892c-0.336-0.201-0.557-0.562-0.557-0.975 0-0.625 0.507-1.132 1.132-1.132 0.233 0 0.449 0.070 0.629 0.19l-0.004-0.003 8.933 5.586 8.933-5.588c0.176-0.118 0.392-0.188 0.624-0.188 0.625 0 1.132 0.507 1.132 1.132 0 0.413-0.221 0.775-0.552 0.972l-0.005 0.003z"></path>
        </symbol>
        <symbol id="icon-planet" viewBox="0 0 32 32">
            <path d="M16 0c-8.823 0-16 7.179-16 16 0 8.823 7.177 16 16 16s16-7.177 16-16c0-8.821-7.177-16-16-16zM29.646 16c0 3.121-1.059 6-2.826 8.302-0.5-0.393-1.031-1.447-0.531-2.54 0.504-1.1 0.635-3.646 0.521-4.637-0.111-0.99-0.625-3.377-2.024-3.4-1.396-0.021-2.354-0.482-3.184-2.139-1.722-3.446 3.233-4.108 1.51-6.017-0.482-0.535-2.972 2.206-3.337-1.448-0.025-0.259 0.225-0.65 0.559-1.056 5.406 1.816 9.313 6.926 9.313 12.935zM14.125 2.49c-0.326 0.635-1.187 0.894-1.712 1.372-1.139 1.031-1.628 0.889-2.243 1.878-0.618 0.99-2.611 2.417-2.611 3.132s1.007 1.561 1.51 1.396c0.504-0.165 1.83-0.156 2.611 0.118 0.781 0.276 6.524 0.552 4.694 5.407-0.58 1.543-3.121 1.283-3.799 3.84-0.101 0.374-0.451 1.976-0.476 2.5-0.042 0.809 0.573 3.863-0.208 3.863-0.785 0-2.896-2.731-2.896-3.226s-0.549-2.231-0.549-3.717c0-1.486-2.528-1.462-2.528-3.437 0-1.783 1.371-2.669 1.063-3.523-0.302-0.849-2.712-0.881-3.715-0.983 1.754-4.553 5.883-7.933 10.858-8.621zM11.708 28.949c0.819-0.432 0.903-0.991 1.646-1.022 0.851-0.038 1.542-0.332 2.5-0.542 0.851-0.186 2.371-1.049 3.712-1.16 1.128-0.092 3.357 0.059 3.958 1.15-2.112 1.423-4.713 2.271-7.512 2.271-0.004 0-0.008 0-0.013 0h0.001c-0 0-0 0-0.001 0-1.535 0-3.011-0.255-4.387-0.725l0.095 0.028z"></path>
        </symbol>
        <symbol id="icon-city" viewBox="0 0 32 32">
            <path d="M4 31.333v-18c0-1.473 1.194-2.667 2.667-2.667v0-2.667c0-0.736 0.597-1.333 1.333-1.333v0h1.333v-5.333c0-0.368 0.298-0.667 0.667-0.667s0.667 0.298 0.667 0.667v0 5.333h1.333c0.736 0 1.333 0.597 1.333 1.333v0 2.667c1.473 0 2.667 1.194 2.667 2.667v0 5.333h4.667v-4h2.667v-2h4v2h0.667v16.667h-24zM12 8.667c0-0.368-0.298-0.667-0.667-0.667v0h-2.667c-0.368 0-0.667 0.298-0.667 0.667v0 2h4v-2zM14.667 13.333c0-0.736-0.597-1.333-1.333-1.333v0h-6.667c-0.736 0-1.333 0.597-1.333 1.333v0 16.667h9.333v-16.667zM20.667 20h-4.667v10h4.667v-10zM26.667 16h-4.667v14h4.667v-14zM24 18h0.667c0.368 0 0.667 0.298 0.667 0.667v0 0.667c0 0.368-0.298 0.667-0.667 0.667v0h-0.667c-0.368 0-0.667-0.298-0.667-0.667v0-0.667c0-0.368 0.298-0.667 0.667-0.667v0zM24 22h0.667c0.368 0 0.667 0.298 0.667 0.667v0 0.667c0 0.368-0.298 0.667-0.667 0.667v0h-0.667c-0.368 0-0.667-0.298-0.667-0.667v0-0.667c0-0.368 0.298-0.667 0.667-0.667v0zM24 26h0.667c0.368 0 0.667 0.298 0.667 0.667v0 0.667c0 0.368-0.298 0.667-0.667 0.667v0h-0.667c-0.368 0-0.667-0.298-0.667-0.667v0-0.667c0-0.368 0.298-0.667 0.667-0.667v0zM18 22h0.667c0.368 0 0.667 0.298 0.667 0.667v0 0.667c0 0.368-0.298 0.667-0.667 0.667v0h-0.667c-0.368 0-0.667-0.298-0.667-0.667v0-0.667c0-0.368 0.298-0.667 0.667-0.667v0zM18 26h0.667c0.368 0 0.667 0.298 0.667 0.667v0 0.667c0 0.368-0.298 0.667-0.667 0.667v0h-0.667c-0.368 0-0.667-0.298-0.667-0.667v0-0.667c0-0.368 0.298-0.667 0.667-0.667v0zM12 28h-0.667c-0.368 0-0.667-0.298-0.667-0.667v0-0.667c0-0.368 0.298-0.667 0.667-0.667v0h0.667c0.368 0 0.667 0.298 0.667 0.667v0 0.667c0 0.368-0.298 0.667-0.667 0.667v0zM12 24h-0.667c-0.368 0-0.667-0.298-0.667-0.667v0-0.667c0-0.368 0.298-0.667 0.667-0.667v0h0.667c0.368 0 0.667 0.298 0.667 0.667v0 0.667c0 0.368-0.298 0.667-0.667 0.667v0zM12 20h-0.667c-0.368 0-0.667-0.298-0.667-0.667v0-0.667c0-0.368 0.298-0.667 0.667-0.667v0h0.667c0.368 0 0.667 0.298 0.667 0.667v0 0.667c0 0.368-0.298 0.667-0.667 0.667v0zM12 16h-0.667c-0.368 0-0.667-0.298-0.667-0.667v0-0.667c0-0.368 0.298-0.667 0.667-0.667v0h0.667c0.368 0 0.667 0.298 0.667 0.667v0 0.667c0 0.368-0.298 0.667-0.667 0.667v0zM8.667 28h-0.667c-0.368 0-0.667-0.298-0.667-0.667v0-0.667c0-0.368 0.298-0.667 0.667-0.667v0h0.667c0.368 0 0.667 0.298 0.667 0.667v0 0.667c0 0.368-0.298 0.667-0.667 0.667v0zM8.667 24h-0.667c-0.368 0-0.667-0.298-0.667-0.667v0-0.667c0-0.368 0.298-0.667 0.667-0.667v0h0.667c0.368 0 0.667 0.298 0.667 0.667v0 0.667c0 0.368-0.298 0.667-0.667 0.667v0zM8.667 20h-0.667c-0.368 0-0.667-0.298-0.667-0.667v0-0.667c0-0.368 0.298-0.667 0.667-0.667v0h0.667c0.368 0 0.667 0.298 0.667 0.667v0 0.667c0 0.368-0.298 0.667-0.667 0.667v0zM8.667 16h-0.667c-0.368 0-0.667-0.298-0.667-0.667v0-0.667c0-0.368 0.298-0.667 0.667-0.667v0h0.667c0.368 0 0.667 0.298 0.667 0.667v0 0.667c0 0.368-0.298 0.667-0.667 0.667v0z"></path>
        </symbol>
        <symbol id="icon-agree" viewBox="0 0 32 32">
            <path  d="M4.817 15.39l-0.17-0.162-0.17 0.16-2.373 2.25 0.187 0.18 8.775 8.369 0.17-0.162 18.658-17.799-0.187-0.177-2.341-2.233-0.17 0.162-16.13 15.375-6.25-5.962z"></path>
        </symbol>
    </defs>
</svg>